<?xml version="1.0" encoding="UTF-8"?><svg id="a" xmlns="http://www.w3.org/2000/svg" xmlns:xlink="http://www.w3.org/1999/xlink" viewBox="0 0 510 120"><defs><style>.al{clip-path:url(#l);}.am{clip-path:url(#ag);}.an{clip-path:url(#x);}.ao{clip-path:url(#aa);}.ap{clip-path:url(#aj);}.aq{clip-path:url(#u);}.ar{clip-path:url(#o);}.as{clip-path:url(#c);}.at{clip-path:url(#f);}.au{clip-path:url(#r);}.av{fill:#231f20;}.aw{clip-path:url(#i);}.ax{clip-path:url(#ad);}</style><clipPath id="c"><path id="d" class="av" d="M47.19,89.31c-5.1,0-7.31-2.98-7.63-7.2,.36,4.75,1.7,11.4,7.33,14.95,1.17,.74,2.54,1.36,4.12,1.81,.94,.27,1.96,.48,3.05,.62,3.64-1.32,6.8-3.48,11.54-11.12-1.25-1.12-5.83-10.15-6.29-11.26-1.26,7.44-6.71,12.2-12.13,12.2"/></clipPath><clipPath id="f"><path id="g" class="av" d="M64.6,50.86c-3.63,3.63-6.55,9.1-7.49,14.49-.03,.58-.07,1.16-.08,1.74,0,.27-.01,.54-.01,.81,0,2.01,.15,3.98,.44,5.89,.29,1.86,.95,4.63,2.21,7.69,.46,1.12,1,2.28,1.63,3.45,.71,1.32,1.55,2.66,2.52,3.96,1.03,1.33,2.18,2.56,3.43,3.69,5.41,4.87,12.77,7.79,21.68,7.79,2.87,0,6.06-.19,9.12-.78,0,0,.02,0,.02,0,.79-.16,1.57-.33,2.33-.55-15.73-2.19-22.58-9.63-25.74-13.18-.37-.41-.71-.85-1.05-1.29-.21-.24-.43-.47-.62-.72-.55-.7-1.05-1.44-1.5-2.23-.27-.46-.52-.93-.76-1.41-.31-.63-.59-1.29-.85-1.95-1.07-2.81-1.68-5.95-1.78-9.3-.01-.22-.02-.45-.02-.67,0-.12,0-.24,0-.37s0-.26,0-.39c0-.5,.03-.99,.06-1.47,0-.06,0-.11,.01-.17,.03-.47,.07-.95,.12-1.41,1.22-11.33,8.56-19.75,21.57-19.75,3.32,0,5.97,.48,8.36,1.29-.57-.22-1.14-.45-1.71-.65-3.89-1.36-8.06-2.1-12.19-2.1-7.24,0-14.37,2.29-19.69,7.61"/></clipPath><clipPath id="i"><path id="j" class="av" d="M33.82,17.87c-3.19,0-5.67,2.46-5.67,5.47v49.83c.01,4.75,1.04,15.99,4.67,20.76,1.85,2.43,4.26,4.21,6.94,5.34,2.24,.94,4.66,1.42,7.1,1.46,1.4,.02,2.8-.11,4.18-.38,.56-.11,1.11-.23,1.65-.38,.47-.14,.95-.29,1.41-.47-1.12-.14-2.14-.36-3.09-.63-1.59-.46-2.95-1.07-4.12-1.81-5.66-3.56-7.21-10.1-7.51-16.33V44.77h14.16c2.49,0,4.52-2.02,4.52-4.55s-2.03-4.54-4.52-4.54h-14.16v-12.34c0-3.01-2.37-5.47-5.56-5.47"/></clipPath><clipPath id="l"><path id="m" class="av" d="M33.82,17.87c-3.19,0-5.67,2.46-5.67,5.47,0,0,0,23.63,.01,33.27,0-12.78,4.9-20.93,11.23-20.93v-12.34c0-3.01-2.37-5.47-5.56-5.47"/></clipPath><clipPath id="o"><path id="p" class="av" d="M128.28,38.74h0s.02-.01,.02-.01c0,0,0,0-.02,.01m0,0h0Zm0,.01s0,0,0-.01c0,0,0,.01,0,.01Z"/></clipPath><clipPath id="r"><path id="s" class="av" d="M150.35,97.99h0s.03-.01,.04-.02c-.02,0-.03,.01-.04,.02m-.03,.02s.02-.01,.03-.02c-.02,.01-.03,.02-.03,.02Z"/></clipPath><clipPath id="u"><path id="v" class="av" d="M147.7,83.08c0,5.67-3.96,8.28-10.07,8.28-4.95,0-8.36-1.62-10.88-2.61-4.04-1.53-6.91,1.26-6.91,4.14,0,1.93,1.37,3.23,2.96,4.08,1.55,.82,3.26,1.46,4.93,1.99,3.4,1.08,6.97,1.47,10.53,1.47,2.42,0,4.85-.16,7.22-.67,2.21-.48,4.75-1.26,6.48-2.79,.19-.17,.37-.36,.51-.57,1.06-1.52,1.31-3.6,1.31-5.23,0-5.33-2.69-9.89-6.72-13.71-1.3-1.22-2.36-2.51-4.17-3.46,3.22,2.41,4.81,5.3,4.81,9.08"/></clipPath><clipPath id="x"><path id="y" class="av" d="M98.05,99.58s.02,0,.02,0c0,0-.02,0-.02,0"/></clipPath><clipPath id="aa"><path id="ab" class="av" d="M126.06,40.81h0c-.22,.19-.42,.39-.62,.6-1.56,1.5-2.81,3.27-3.81,5.18-.89,1.7-1.59,3.5-2.18,5.31-.65,2.04-1.18,4.13-1.65,6.25-1.57,7.02-2.56,14.27-5.91,20.37-2.68,4.87-6.66,8.3-11.66,10.69-2.94,1.3-6.17,2.15-10.4,2.15-2.04,0-3.93-.21-5.69-.61-4.39-1-7.91-3.18-10.53-6.21,.33,.44,.68,.88,1.05,1.29,3.17,3.55,10.01,10.99,25.74,13.18,1.54-.42,3.02-.96,4.37-1.65,1.54-.8,2.99-1.7,4.37-2.69,2.19-1.59,4.17-3.4,5.93-5.42,2.86-3.25,5.15-7.01,6.85-11.05,.67-1.59,1.26-3.23,1.74-4.9,.27-.92,.51-1.85,.74-2.78,.74-2.96,1.52-6.8,2.16-9.8,.01-.06-2.26-5.81-2.42-9.33-.11-2.36,.28-4.85,1.02-7.28,.18-1.13,.5-1.6,1.02-2.65,.05-.1,.18-.19,.23-.28,.07-.06,.84-.6,.62-.75l1.39-1.53c-.19,.14-2.19,1.73-2.36,1.89"/></clipPath><clipPath id="ad"><path id="ae" class="av" d="M79.4,36.94c-2.6,.75-5.31,1.77-7.6,3.22-2.23,1.41-4.3,3.06-6.14,4.93-.27,.28-.56,.55-.81,.83-.96,1.05-1.82,2.16-2.61,3.35-.47,.73-.92,1.49-1.33,2.26t0,.01c-2.16,4.09-3.47,8.78-3.8,13.82,.94-5.4,3.86-10.86,7.49-14.49,8.36-8.35,21.17-9.24,31.88-5.51,.57,.2,1.15,.42,1.71,.65,1.29,.52,2.56,1.1,3.81,1.71,.36,.18,.73,.37,1.09,.57,.81,.45,1.62,.81,2.7,.81,.39,0,.78-.06,1.15-.16,1.9-.53,3.34-2.34,3.34-4.6,0-1.71-.81-2.79-2.07-3.69-3.9-2.81-9.01-3.98-13.71-4.57-1.94-.24-3.87-.38-5.79-.38-3.13,0-6.24,.37-9.31,1.25"/></clipPath><clipPath id="ag"><path id="ah" class="av" d="M128.93,38.58c-1.94,1.19-3.19,3.28-3.86,5.41-.42,1.36-.65,2.81-.28,4.22,.57,2.19,2.39,3.81,4.27,5.07,3.33,2.24,7.06,3.79,10.46,5.91-1.79-1.34-3.54-2.81-4.67-4.75-1.13-1.93-1.54-4.41-.54-6.41,.8-1.6,2.4-2.7,4.13-3.19,1.72-.49,3.56-.42,5.33-.15,2.04,.31,4.03,.88,5.98,1.56,.99,.34,2,.72,3.05,.71,1.26-.01,2.5-.62,3.27-1.61,.78-.98,1.08-2.33,.8-3.56-.45-1.94-2.2-3.31-4.01-4.13-2.6-1.18-5.48-1.55-8.33-1.77-2.52-.21-5.07-.3-7.59-.03-2.49,.27-4.95,.92-7.13,2.16-.13,.08-.26,.16-.39,.23l-.51,.31Z"/></clipPath><clipPath id="aj"><path id="ak" class="av" d="M126.85,61.23c1.74,2.81,4.48,4.76,7.14,6.62,2.93,2.05,5.83,4.12,8.81,6.09,2.09,1.39,3.94,3.1,5.57,5,2.98,3.43,5.56,7.72,5.35,12.44-.04,.85-.14,1.7-.38,2.51-.42,1.39-1.31,3.19-2.6,3.96,6.58-3.9,9.29-11.49,7.58-18.82-1.66-7.12-7.37-11.94-13.04-16.04-1.13-.82-2.29-1.61-3.46-2.37-1.17-.76-2.36-1.48-3.57-2.18-.99-.57-1.97-1.16-2.94-1.75-1.39-.82-2.75-1.66-4.09-2.56-2.13-1.43-4.31-3.13-5.46-5.48-.71-1.45-.98-2.99-.74-4.51-1.63,5.38-1.2,12.2,1.82,17.09"/></clipPath></defs><g><g><path id="b" class="av" d="M47.19,89.31c-5.1,0-7.31-2.98-7.63-7.2,.36,4.75,1.7,11.4,7.33,14.95,1.17,.74,2.54,1.36,4.12,1.81,.94,.27,1.96,.48,3.05,.62,3.64-1.32,6.8-3.48,11.54-11.12-1.25-1.12-5.83-10.15-6.29-11.26-1.26,7.44-6.71,12.2-12.13,12.2"/><g class="as"><rect class="av" x="39.56" y="77.11" width="26.05" height="22.39"/></g></g><g><path id="e" class="av" d="M64.6,50.86c-3.63,3.63-6.55,9.1-7.49,14.49-.03,.58-.07,1.16-.08,1.74,0,.27-.01,.54-.01,.81,0,2.01,.15,3.98,.44,5.89,.29,1.86,.95,4.63,2.21,7.69,.46,1.12,1,2.28,1.63,3.45,.71,1.32,1.55,2.66,2.52,3.96,1.03,1.33,2.18,2.56,3.43,3.69,5.41,4.87,12.77,7.79,21.68,7.79,2.87,0,6.06-.19,9.12-.78,0,0,.02,0,.02,0,.79-.16,1.57-.33,2.33-.55-15.73-2.19-22.58-9.63-25.74-13.18-.37-.41-.71-.85-1.05-1.29-.21-.24-.43-.47-.62-.72-.55-.7-1.05-1.44-1.5-2.23-.27-.46-.52-.93-.76-1.41-.31-.63-.59-1.29-.85-1.95-1.07-2.81-1.68-5.95-1.78-9.3-.01-.22-.02-.45-.02-.67,0-.12,0-.24,0-.37s0-.26,0-.39c0-.5,.03-.99,.06-1.47,0-.06,0-.11,.01-.17,.03-.47,.07-.95,.12-1.41,1.22-11.33,8.56-19.75,21.57-19.75,3.32,0,5.97,.48,8.36,1.29-.57-.22-1.14-.45-1.71-.65-3.89-1.36-8.06-2.1-12.19-2.1-7.24,0-14.37,2.29-19.69,7.61"/><g class="at"><rect class="av" x="57.02" y="43.25" width="43.39" height="57.11"/></g></g><g><path id="h" class="av" d="M33.82,17.87c-3.19,0-5.67,2.46-5.67,5.47v49.83c.01,4.75,1.04,15.99,4.67,20.76,1.85,2.43,4.26,4.21,6.94,5.34,2.24,.94,4.66,1.42,7.1,1.46,1.4,.02,2.8-.11,4.18-.38,.56-.11,1.11-.23,1.65-.38,.47-.14,.95-.29,1.41-.47-1.12-.14-2.14-.36-3.09-.63-1.59-.46-2.95-1.07-4.12-1.81-5.66-3.56-7.21-10.1-7.51-16.33V44.77h14.16c2.49,0,4.52-2.02,4.52-4.55s-2.03-4.54-4.52-4.54h-14.16v-12.34c0-3.01-2.37-5.47-5.56-5.47"/><g class="aw"><rect class="av" x="28.15" y="17.87" width="29.92" height="82.89"/></g></g><g><path id="k" class="av" d="M33.82,17.87c-3.19,0-5.67,2.46-5.67,5.47,0,0,0,23.63,.01,33.27,0-12.78,4.9-20.93,11.23-20.93v-12.34c0-3.01-2.37-5.47-5.56-5.47"/><g class="al"><rect class="av" x="28.15" y="17.87" width="11.24" height="38.74"/></g></g><g><path id="n" class="av" d="M128.28,38.74h0s.02-.01,.02-.01c0,0,0,0-.02,.01m0,0h0Zm0,.01s0,0,0-.01c0,0,0,.01,0,.01Z"/><g class="ar"><rect class="av" x="128.27" y="38.73" width=".03" height=".02"/></g></g><g><path id="q" class="av" d="M150.35,97.99h0s.03-.01,.04-.02c-.02,0-.03,.01-.04,.02m-.03,.02s.02-.01,.03-.02c-.02,.01-.03,.02-.03,.02Z"/><g class="au"><rect class="av" x="150.32" y="97.97" width=".07" height=".03"/></g></g><g><path id="t" class="av" d="M147.7,83.08c0,5.67-3.96,8.28-10.07,8.28-4.95,0-8.36-1.62-10.88-2.61-4.04-1.53-6.91,1.26-6.91,4.14,0,1.93,1.37,3.23,2.96,4.08,1.55,.82,3.26,1.46,4.93,1.99,3.4,1.08,6.97,1.47,10.53,1.47,2.42,0,4.85-.16,7.22-.67,2.21-.48,4.75-1.26,6.48-2.79,.19-.17,.37-.36,.51-.57,1.06-1.52,1.31-3.6,1.31-5.23,0-5.33-2.69-9.89-6.72-13.71-1.3-1.22-2.36-2.51-4.17-3.46,3.22,2.41,4.81,5.3,4.81,9.08"/><g class="aq"><rect class="av" x="119.83" y="74" width="33.96" height="26.43"/></g></g><g><path id="w" class="av" d="M98.05,99.58s.02,0,.02,0c0,0-.02,0-.02,0"/><g class="an"><rect class="av" x="98.05" y="99.57" width=".02" height="0"/></g></g><g><path id="a`" class="av" d="M126.06,40.81h0c-.22,.19-.42,.39-.62,.6-1.56,1.5-2.81,3.27-3.81,5.18-.89,1.7-1.59,3.5-2.18,5.31-.65,2.04-1.18,4.13-1.65,6.25-1.57,7.02-2.56,14.27-5.91,20.37-2.68,4.87-6.66,8.3-11.66,10.69-2.94,1.3-6.17,2.15-10.4,2.15-2.04,0-3.93-.21-5.69-.61-4.39-1-7.91-3.18-10.53-6.21,.33,.44,.68,.88,1.05,1.29,3.17,3.55,10.01,10.99,25.74,13.18,1.54-.42,3.02-.96,4.37-1.65,1.54-.8,2.99-1.7,4.37-2.69,2.19-1.59,4.17-3.4,5.93-5.42,2.86-3.25,5.15-7.01,6.85-11.05,.67-1.59,1.26-3.23,1.74-4.9,.27-.92,.51-1.85,.74-2.78,.74-2.96,1.52-6.8,2.16-9.8,.01-.06-2.26-5.81-2.42-9.33-.11-2.36,.28-4.85,1.02-7.28,.18-1.13,.5-1.6,1.02-2.65,.05-.1,.18-.19,.23-.28,.07-.06,.84-.6,.62-.75l1.39-1.53c-.19,.14-2.19,1.73-2.36,1.89"/><g class="ao"><rect class="av" x="73.62" y="38.93" width="54.81" height="60.1"/></g></g><g><path id="ac" class="av" d="M79.4,36.94c-2.6,.75-5.31,1.77-7.6,3.22-2.23,1.41-4.3,3.06-6.14,4.93-.27,.28-.56,.55-.81,.83-.96,1.05-1.82,2.16-2.61,3.35-.47,.73-.92,1.49-1.33,2.26t0,.01c-2.16,4.09-3.47,8.78-3.8,13.82,.94-5.4,3.86-10.86,7.49-14.49,8.36-8.35,21.17-9.24,31.88-5.51,.57,.2,1.15,.42,1.71,.65,1.29,.52,2.56,1.1,3.81,1.71,.36,.18,.73,.37,1.09,.57,.81,.45,1.62,.81,2.7,.81,.39,0,.78-.06,1.15-.16,1.9-.53,3.34-2.34,3.34-4.6,0-1.71-.81-2.79-2.07-3.69-3.9-2.81-9.01-3.98-13.71-4.57-1.94-.24-3.87-.38-5.79-.38-3.13,0-6.24,.37-9.31,1.25"/><g class="ax"><rect class="av" x="57.11" y="35.69" width="53.18" height="29.67"/></g></g><g><path id="af" class="av" d="M128.93,38.58c-1.94,1.19-3.19,3.28-3.86,5.41-.42,1.36-.65,2.81-.28,4.22,.57,2.19,2.39,3.81,4.27,5.07,3.33,2.24,7.06,3.79,10.46,5.91-1.79-1.34-3.54-2.81-4.67-4.75-1.13-1.93-1.54-4.41-.54-6.41,.8-1.6,2.4-2.7,4.13-3.19,1.72-.49,3.56-.42,5.33-.15,2.04,.31,4.03,.88,5.98,1.56,.99,.34,2,.72,3.05,.71,1.26-.01,2.5-.62,3.27-1.61,.78-.98,1.08-2.33,.8-3.56-.45-1.94-2.2-3.31-4.01-4.13-2.6-1.18-5.48-1.55-8.33-1.77-2.52-.21-5.07-.3-7.59-.03-2.49,.27-4.95,.92-7.13,2.16-.13,.08-.26,.16-.39,.23l-.51,.31Z"/><g class="am"><rect class="av" x="124.43" y="35.6" width="32.72" height="23.6"/></g></g><g><path id="ai" class="av" d="M126.85,61.23c1.74,2.81,4.48,4.76,7.14,6.62,2.93,2.05,5.83,4.12,8.81,6.09,2.09,1.39,3.94,3.1,5.57,5,2.98,3.43,5.56,7.72,5.35,12.44-.04,.85-.14,1.7-.38,2.51-.42,1.39-1.31,3.19-2.6,3.96,6.58-3.9,9.29-11.49,7.58-18.82-1.66-7.12-7.37-11.94-13.04-16.04-1.13-.82-2.29-1.61-3.46-2.37-1.17-.76-2.36-1.48-3.57-2.18-.99-.57-1.97-1.16-2.94-1.75-1.39-.82-2.75-1.66-4.09-2.56-2.13-1.43-4.31-3.13-5.46-5.48-.71-1.45-.98-2.99-.74-4.51-1.63,5.38-1.2,12.2,1.82,17.09"/><g class="ap"><rect class="av" x="123.4" y="44.14" width="36.64" height="53.72"/></g></g><g><path class="av" d="M224.8,92.8c-7.3,5.97-16.41,7.49-25.13,7.49h-18.21c-2.94,0-5.31-2.28-5.31-5.12V40.83c0-2.85,2.37-5.12,5.31-5.12h19.54c10.34,0,19.63,2.28,26.74,10.05,4.74,5.03,7.68,12.33,7.68,22.19,0,11.57-4.27,19.63-10.62,24.85Zm-38.03-1.42h12.04c7.3,0,13.56-1.61,18.21-5.5,4.84-3.98,7.59-9.77,7.59-17.92,0-7.21-2.09-12.42-5.5-16.22-4.46-4.93-11.38-7.11-19.72-7.11h-12.61v46.75Z"/><path class="av" d="M280.94,93.84c0,2.09-1.52,3.51-4.46,4.84-3.7,1.61-8.25,2.56-12.99,2.56-7.21,0-13.09-2.37-17.07-6.64-3.79-3.98-5.97-9.67-5.97-16.41,0-6.26,2.18-11.76,5.97-15.74,3.6-3.79,9.01-6.16,15.84-6.16s11.85,2.47,15.27,5.88c3.89,4.08,5.22,9.1,5.22,13.85,0,3.03-1.8,5.41-4.93,5.41h-27.12c.28,3.13,1.42,5.88,3.22,7.87,2.37,2.75,5.88,4.27,10.24,4.27,3.41,0,6.35-.85,8.63-1.9,2.09-.95,3.13-1.8,4.55-1.8,2.09,0,3.6,1.9,3.6,3.98Zm-7.68-19.06c-.09-3.03-1.04-5.5-2.75-7.49-1.8-1.9-4.65-3.22-8.16-3.22-3.79,0-6.92,1.33-8.82,3.41-1.61,1.9-2.66,4.65-2.85,7.3h22.57Z"/><path class="av" d="M321.15,101.24c-2.85,0-4.17-1.8-5.41-3.22l-10.53-12.8-10.81,13.37c-.95,1.14-2.37,2.66-5.03,2.66-3.03,0-5.22-2.18-5.22-4.84,0-2.09,1.33-3.22,2.65-4.65l11.95-13.47-11.76-13.37c-1.04-1.14-1.9-2.09-1.9-3.79,0-2.66,2.09-4.84,5.12-4.84,2.47,0,3.79,1.42,4.93,2.75l10.05,12.33,10.05-12.23c1.23-1.42,2.47-2.85,4.93-2.85,2.85,0,5.03,2.09,5.03,4.65,0,1.42-.76,2.37-1.71,3.41l-12.04,13.28,13.09,14.79c1.23,1.42,1.8,2.47,1.8,3.89,0,2.75-2.18,4.93-5.22,4.93Z"/><path class="av" d="M336.13,77.15c5.31-2.18,12.33-2.84,18.21-3.32v-1.14c0-3.03-.57-4.93-1.8-6.45-1.52-1.8-3.79-2.47-6.35-2.47-3.22,0-5.88,.85-8.06,1.8-2.18,.95-3.32,1.52-4.65,1.52-1.99,0-3.51-1.52-3.51-3.51,0-2.47,2.28-3.79,5.03-4.93,3.51-1.42,7.78-2.37,12.23-2.37s9.58,.85,13.18,4.84c2.28,2.56,3.6,6.07,3.6,11.57v23.8c0,2.66-2.28,4.74-4.84,4.74-1.99,0-3.7-1.04-4.46-2.66-3.89,2.09-7.68,2.66-12.04,2.66-7.68,0-14.89-4.55-14.89-12.99,0-5.78,3.51-9.1,8.34-11.1Zm18.21,14.51v-11.1c-10.24,.57-17.26,2.47-17.26,7.49,0,4.17,4.17,6.07,8.63,6.07,2.84,0,5.88-.85,8.63-2.47Z"/><path class="av" d="M378.14,56.38c2.75,0,4.84,2.09,4.84,4.74v.09c2.75-3.22,7.02-4.84,11.66-4.84,3.22,0,6.26,.66,8.91,2.28,2.18,1.33,3.89,3.13,4.93,5.31,1.23-1.9,3.03-4.08,5.69-5.6,2.47-1.42,5.41-1.99,8.63-1.99,4.46,0,8.82,1.23,11.95,4.17,2.84,2.66,4.55,6.92,4.55,13.18v22.85c0,2.56-2.28,4.74-4.84,4.74-2.75,0-4.84-2.18-4.84-4.74v-20.39c0-3.7-.76-6.83-2.47-8.91-1.42-1.61-3.6-2.66-6.64-2.66s-5.78,1.42-7.3,3.89c-1.52,2.47-2.09,5.88-2.09,9.96v18.11c0,2.56-2.28,4.74-4.84,4.74-2.75,0-4.84-2.18-4.84-4.74v-20.39c0-3.7-.76-6.83-2.47-8.91-1.42-1.61-3.6-2.66-6.64-2.66s-5.79,1.52-7.3,4.17c-1.42,2.47-1.99,5.88-2.09,10.05v17.64c0,2.66-2.28,4.84-4.84,4.84-2.75,0-4.84-2.18-4.84-4.84V61.12c0-2.66,2.09-4.74,4.84-4.74Z"/></g></g><path class="av" d="M450.26,38.78v16.5c0,1.02-.9,1.87-1.93,1.87-1.08,0-1.93-.84-1.93-1.87v-16.5h-5.42c-.9,0-1.69-.78-1.69-1.75s.78-1.75,1.69-1.75h14.69c.9,0,1.69,.78,1.69,1.75s-.78,1.75-1.69,1.75h-5.42Zm18.78,12.58l-5.42-9.09v13.06c0,.96-.84,1.81-1.87,1.81-1.08,0-1.87-.84-1.87-1.81v-18.42c0-1.02,.66-1.87,1.99-1.87s1.81,.54,2.47,1.63l6.44,10.72,6.38-10.72c.66-1.08,1.08-1.63,2.47-1.63s2.05,.84,2.05,1.87v18.42c0,.96-.84,1.81-1.86,1.81-1.09,0-1.93-.84-1.93-1.81v-13.06l-5.48,9.09c-.36,.66-.96,1.08-1.63,1.08-.72,0-1.38-.42-1.75-1.08"/></svg>